<svg width="25" height="25" viewBox="0 0 1.2 1.2" xmlns="http://www.w3.org/2000/svg"><g fill="none" fill-rule="evenodd"><path d="M1.2 0v1.2H0V0h1.2ZM.63 1.163H.629l-.004.002H.623l-.004-.002H.618v.001l-.001.021v.001l.001.001.005.004h.002l.005-.004.001-.001v-.001L.63 1.164l-.001-.001Zm.013-.006H.642l-.009.005-.001.001v.001l.001.022v.001l.01.005h.001v-.001L.642 1.16l-.001-.001Zm-.036 0a.001.001 0 0 0-.001 0v.001l-.002.031.001.001h.001l.01-.005h.001v-.001l.001-.022v-.001L.617 1.16l-.009-.005Z"/><path d="M.292.255A.1.1 0 0 1 .381.2h.438a.1.1 0 0 1 .089.055l.176.351A.15.15 0 0 1 1.1.674V.95a.1.1 0 0 1-.1.1H.2a.1.1 0 0 1-.1-.1V.674A.15.15 0 0 1 .116.607L.292.256ZM.819.3H.381L.206.65h.169A.075.075 0 0 1 .45.725v.05A.025.025 0 0 0 .475.8h.25A.025.025 0 0 0 .75.775v-.05A.075.075 0 0 1 .825.65h.169L.819.3Z" fill="#295dc4"/></g></svg>