<svg fill="#fefefe" width="25" height="25" viewBox="0 0 0.72 0.72" xmlns="http://www.w3.org/2000/svg"><path d="M.649.405a.293.293 0 0 1-.244.248v.023h-.09V.653A.293.293 0 0 1 .071.405H.045v-.09h.027a.293.293 0 0 1 .243-.24v-.03h.09v.03a.293.293 0 0 1 .243.24h.027v.09H.649zM.337.653h.045V.608H.337v.045zM.067.338v.045h.045V.338H.067zm.315-.27H.337v.045h.045V.068zm.023.041v.026h-.09V.109a.259.259 0 0 0-.209.206h.029v.09h-.03a.259.259 0 0 0 .21.213V.585h.09v.033a.259.259 0 0 0 .21-.213h-.03v-.09h.029A.259.259 0 0 0 .405.109zm.248.228H.608v.045h.045V.337z"/></svg>