<svg xmlns="http://www.w3.org/2000/svg" width="16" height="16"  fill="#898c91" viewBox="0 0 5.2 5.2" xml:space="preserve"><path d="M4.65.4h-.3c-.08 0-.15.07-.15.15v.7c0 .09-.05.13-.12.07a.474.474 0 0 0-.1-.1c-.5-.5-1.2-.71-1.92-.57-.25.05-.49.15-.7.29-.61.4-.96 1.05-.97 1.75-.01.54.2 1.08.58 1.47.4.42.94.65 1.52.65.51 0 .99-.18 1.37-.5.07-.06.07-.16.01-.22l-.21-.21a.152.152 0 0 0-.2-.01c-.36.3-.85.42-1.34.3-.13-.03-.26-.09-.38-.16C1.17 3.66.9 3 1.06 2.34c.03-.13.09-.26.16-.38.28-.49.77-.76 1.29-.76.4 0 .78.16 1.06.44.05.04.09.09.12.14.03.08-.04.12-.13.12h-.7c-.08 0-.15.07-.15.15v.31c0 .08.06.14.14.14h1.83c.07 0 .13-.06.13-.13V.55C4.8.47 4.73.4 4.65.4z"/></svg>